<?xml version="1.0" encoding="UTF-8" standalone="no"?>
<svg
   xmlns:dc="http://purl.org/dc/elements/1.1/"
   xmlns:cc="http://creativecommons.org/ns#"
   xmlns:rdf="http://www.w3.org/1999/02/22-rdf-syntax-ns#"
   xmlns:svg="http://www.w3.org/2000/svg"
   xmlns="http://www.w3.org/2000/svg"
   version="1.1"
   id="svg1185"
   width="637.79999"
   height="406.20001">
  <metadata
     id="metadata1084">
    <rdf:RDF>
      <cc:Work
         rdf:about="">
        <dc:title></dc:title>
        <dc:format>image/svg+xml</dc:format>
        <dc:type
           rdf:resource="http://purl.org/dc/dcmitype/StillImage" />
      </cc:Work>
    </rdf:RDF>
  </metadata>
  <g
     id="g869">
    <path
       style="fill:#04aa6d;fill-opacity:1;stroke-width:0.6"
       d="m 335.39999,162 136.8,244.2 67.8,-120.6 -129.6,-230.4 H 260.39998 l -62.4,111 -62.4,-111 H 0 l 196.79998,351 1.2,-1.8 0.6,1.8 z"
       id="path832" />
    <path
       style="fill:#04aa6d;fill-opacity:1;stroke-width:0.6"
       d="m 537.59999,126 4.8,4.8 Q 549,135.6 556.2,138.6 q 10.2,4.8 19.8,4.8 13.2,0 21.9,-7.2 8.7,-7.2 8.7,-18 0,-13.2 -10.2,-19.8 -10.2,-6.6 -25.8,-6.6 h -12 L 551.99999,76.2 582.6,39 q 4.2,-4.8 9,-9 l 3.6,-3.6 h -66 V 0 H 633 v 19.2 l -41.4,48 q 19.2,3 31.8,15 14.4,13.8 14.4,34.8 0,22.8 -15.6,38.4 -16.8,17.4 -43.8,17.4 -16.20001,0 -30.60001,-6 -10.8,-4.2 -19.2,-10.8 l -6.6,-6 z"
       id="path1166" />
  </g>
  <defs
     id="defs1183" />
</svg>
